<svg width="92" height="36" viewBox="0 0 92 36" fill="none" xmlns="http://www.w3.org/2000/svg">
<g clip-path="url(#clip0)" filter="url(#filter0_d)">
<path d="M40.2463 14.3591C40.2463 18.2457 37.1611 21.1096 33.375 21.1096C29.5888 21.1096 26.5036 18.2457 26.5036 14.3591C26.5036 10.4452 29.5888 7.6087 33.375 7.6087C37.1611 7.6087 40.2463 10.4452 40.2463 14.3591ZM37.2384 14.3591C37.2384 11.9304 35.4503 10.2687 33.375 10.2687C31.2997 10.2687 29.5116 11.9304 29.5116 14.3591C29.5116 16.7635 31.2997 18.4496 33.375 18.4496C35.4503 18.4496 37.2384 16.7604 37.2384 14.3591Z" fill="#EA4335"/>
<path d="M55.0698 14.3591C55.0698 18.2457 51.9847 21.1096 48.1985 21.1096C44.4123 21.1096 41.3272 18.2457 41.3272 14.3591C41.3272 10.4483 44.4123 7.6087 48.1985 7.6087C51.9847 7.6087 55.0698 10.4452 55.0698 14.3591ZM52.0619 14.3591C52.0619 11.9304 50.2738 10.2687 48.1985 10.2687C46.1232 10.2687 44.3351 11.9304 44.3351 14.3591C44.3351 16.7635 46.1232 18.4496 48.1985 18.4496C50.2738 18.4496 52.0619 16.7604 52.0619 14.3591Z" fill="#FBBC05"/>
<path d="M69.2757 8.01653V20.1357C69.2757 25.1209 66.2924 27.157 62.7657 27.157C59.4458 27.157 57.4477 24.9687 56.6942 23.1791L59.313 22.1048C59.7794 23.2035 60.922 24.5 62.7626 24.5C65.0201 24.5 66.4191 23.1274 66.4191 20.5435V19.5726H66.3141C65.6408 20.3913 64.3438 21.1065 62.707 21.1065C59.2821 21.1065 56.1445 18.1665 56.1445 14.3835C56.1445 10.5731 59.2821 7.6087 62.707 7.6087C64.3407 7.6087 65.6377 8.32392 66.3141 9.11827H66.4191V8.01957H69.2757V8.01653ZM66.6322 14.3835C66.6322 12.0065 65.0232 10.2687 62.9757 10.2687C60.9004 10.2687 59.1617 12.0065 59.1617 14.3835C59.1617 16.7361 60.9004 18.4496 62.9757 18.4496C65.0232 18.4496 66.6322 16.7361 66.6322 14.3835Z" fill="#4285F4"/>
<path d="M73.9853 0.913055V20.6957H71.0515V0.913055H73.9853Z" fill="#34A853"/>
<path d="M85.418 16.5809L87.7527 18.1148C86.9992 19.2135 85.1833 21.1065 82.0457 21.1065C78.1545 21.1065 75.2485 18.1422 75.2485 14.3561C75.2485 10.3417 78.1792 7.60565 81.7091 7.60565C85.2636 7.60565 87.0023 10.3935 87.5705 11.9L87.8824 12.667L78.7258 16.4043C79.4269 17.7587 80.517 18.4496 82.0457 18.4496C83.5774 18.4496 84.6398 17.707 85.418 16.5809ZM78.2317 14.1522L84.3526 11.6474C84.016 10.8043 83.003 10.217 81.811 10.217C80.2823 10.217 78.1545 11.547 78.2317 14.1522Z" fill="#EA4335"/>
<path d="M15.3985 12.603V9.73912H25.1913C25.287 10.2383 25.3364 10.8287 25.3364 11.4678C25.3364 13.6165 24.7404 16.2735 22.8195 18.1665C20.9511 20.0839 18.5639 21.1065 15.4016 21.1065C9.54009 21.1065 4.61127 16.4013 4.61127 10.6248C4.61127 4.84825 9.54009 0.143036 15.4016 0.143036C18.6442 0.143036 20.9542 1.39695 22.6898 3.0313L20.6392 5.05217C19.3946 3.90173 17.7085 3.00695 15.3985 3.00695C11.1182 3.00695 7.77053 6.40651 7.77053 10.6248C7.77053 14.843 11.1182 18.2426 15.3985 18.2426C18.1748 18.2426 19.756 17.1439 20.7689 16.1456C21.5904 15.3361 22.1308 14.1796 22.3439 12.6L15.3985 12.603Z" fill="#4285F4"/>
</g>
<defs>
<filter id="filter0_d" x="0.5" y="0" width="92" height="36" filterUnits="userSpaceOnUse" color-interpolation-filters="sRGB">
<feFlood flood-opacity="0" result="BackgroundImageFix"/>
<feColorMatrix in="SourceAlpha" type="matrix" values="0 0 0 0 0 0 0 0 0 0 0 0 0 0 0 0 0 0 127 0"/>
<feOffset dy="4"/>
<feGaussianBlur stdDeviation="2"/>
<feColorMatrix type="matrix" values="0 0 0 0 0 0 0 0 0 0 0 0 0 0 0 0 0 0 0.25 0"/>
<feBlend mode="normal" in2="BackgroundImageFix" result="effect1_dropShadow"/>
<feBlend mode="normal" in="SourceGraphic" in2="effect1_dropShadow" result="shape"/>
</filter>
<clipPath id="clip0">
<rect width="84" height="28" fill="white" transform="translate(4.5)"/>
</clipPath>
</defs>
</svg>
